# xmcd
#
# Track frame offsets: 
#        150
#        13226
#        24483
#        34881
#        45210
#        60235
#        70336
#        79596
#        99790
#        116701
#
# Disc length: 1805 seconds
#
# Revision: 0
# Processed by: cddbd v1.5.2PL0 Copyright (c) Steve Scherf et al.
# Submitted via: ExactAudioCopy v0.99pb3
#
DISCID=70070b0a
DTITLE=Wes Miller - Knee Deep In Grass
DYEAR=2007
DGENRE=Bluegrass
TTITLE0=Hello Good Bye
TTITLE1=Bluegrass Breakdown
TTITLE2=I'll Go On Loving You
TTITLE3=Six Foot Of Sod
TTITLE4=I'll Always Be Blue
TTITLE5=Stella Sue
TTITLE6=Dear Ole Dixie
TTITLE7=Song For Life
TTITLE8=I'd Like To Be A Train
TTITLE9=Mule Skinner Blues
EXTD=
EXTT0=
EXTT1=
EXTT2=
EXTT3=
EXTT4=
EXTT5=
EXTT6=
EXTT7=
EXTT8=
EXTT9=
PLAYORDER=
